<svg xmlns="http://www.w3.org/2000/svg" viewBox="0 0 566.93 566.93">
  <defs>
    <style>.cls-1{fill:#003974;}.cls-2{fill:#445996;}.cls-3{fill:#7592c1;}</style>
  </defs>
  <g id="TEXT">
    <path class="cls-1" d="M89.09,400.72l-1.9,3.57v12H81.05V377.21h6.14v17l8.15-17h6l-8.55,17.42,8.55,21.67H95.07Z"/>
    <path class="cls-1"
          d="M105.24,386.59q0-4.74,2.4-7.28t6.93-2.54q4.52,0,6.92,2.54t2.4,7.28v20.33q0,4.74-2.4,7.28c-1.6,1.7-3.91,2.54-6.92,2.54s-5.33-.84-6.93-2.54-2.4-4.12-2.4-7.28Zm6.14,20.72a4.16,4.16,0,0,0,.87,3,3.55,3.55,0,0,0,4.63,0,4.16,4.16,0,0,0,.87-3V386.2a4.11,4.11,0,0,0-.87-3,3.52,3.52,0,0,0-4.63,0,4.11,4.11,0,0,0-.87,3Z"/>
    <path class="cls-1" d="M135.93,416.3h-6.14V377.21h6.14V394h7V377.21h6.26V416.3h-6.26V399.55h-7Z"/>
    <path class="cls-1"
          d="M173.41,401.73v5.19q0,4.74-2.31,7.28c-1.55,1.7-3.83,2.54-6.84,2.54s-5.3-.84-6.84-2.54-2.32-4.12-2.32-7.28V386.59q0-4.74,2.32-7.28t6.84-2.54q4.52,0,6.84,2.54t2.31,7.28v3.8h-5.8V386.2a4.11,4.11,0,0,0-.87-3,3.52,3.52,0,0,0-4.63,0,4.11,4.11,0,0,0-.87,3v21.11a4,4,0,0,0,.87,3,3.61,3.61,0,0,0,4.63,0,4,4,0,0,0,.87-3v-5.58Z"/>
    <path class="cls-1"
          d="M178.94,386.59q0-4.74,2.4-7.28t6.92-2.54q4.53,0,6.93,2.54t2.4,7.28v20.33q0,4.74-2.4,7.28c-1.6,1.7-3.91,2.54-6.93,2.54s-5.32-.84-6.92-2.54-2.4-4.12-2.4-7.28Zm6.14,20.72a4.16,4.16,0,0,0,.87,3,3.55,3.55,0,0,0,4.63,0,4.16,4.16,0,0,0,.87-3V386.2a4.11,4.11,0,0,0-.87-3,3.52,3.52,0,0,0-4.63,0,4.11,4.11,0,0,0-.87,3Z"/>
    <path class="cls-1"
          d="M212.54,377.21q4.62,0,6.89,2.46t2.26,7.2V392q0,4.74-2.26,7.2c-1.51,1.64-3.81,2.45-6.89,2.45h-2.91V416.3h-6.14V377.21Zm-2.91,5.59V396h2.91a3,3,0,0,0,2.23-.78,4.11,4.11,0,0,0,.78-2.9v-5.87a4.11,4.11,0,0,0-.78-2.9,3,3,0,0,0-2.23-.78Z"/>
    <path class="cls-1" d="M233.13,410.71h7v-33.5h6.25v33.5h3.13v10.05h-6.25V416.3H227V377.21h6.14Z"/>
    <path class="cls-1" d="M260.84,416.3h-6.31V377.21H260v23.4l6.31-23.4H274V416.3h-5.53V388Z"/>
    <path class="cls-1"
          d="M282.66,410.71a9.08,9.08,0,0,0,1.07.06h1.06a5.39,5.39,0,0,0,1.36-.17,2.46,2.46,0,0,0,1.12-.61,2.88,2.88,0,0,0,.73-1.28,7.87,7.87,0,0,0,.25-2.13l-8.94-29.37h6.15l6.75,22.9,5.58-22.9h6.15l-8,28.81a33,33,0,0,1-2.15,6.17,8.61,8.61,0,0,1-2.32,3.07,5,5,0,0,1-2.65,1c-.95.07-2,.11-3.16.11h-1.5a11.19,11.19,0,0,1-1.46-.11Z"/>
    <path class="cls-1"
          d="M322.3,405l4.19-27.75H335V416.3h-5.81v-28l-4.24,28h-5.81l-4.58-27.64V416.3h-5.35V377.21h8.54Z"/>
    <path class="cls-1"
          d="M363,377.21q4.8,0,6.95,2.24t2.15,6.75v1.4a11.26,11.26,0,0,1-1,5,6,6,0,0,1-3,2.9,6.18,6.18,0,0,1,3.54,3.1,12.09,12.09,0,0,1,1,5.28V407c0,3-.79,5.31-2.35,6.89s-3.89,2.38-7,2.38h-9.66V377.21Zm-3.12,5.59v10.33h2.4a3.83,3.83,0,0,0,2.7-.9,4.27,4.27,0,0,0,1-3.23v-2.18a5,5,0,0,0-.75-3.07,2.88,2.88,0,0,0-2.38-.95Zm0,15.91v12h3.51a3.16,3.16,0,0,0,2.38-.83,4.4,4.4,0,0,0,.81-3v-3.4c0-1.83-.31-3.07-.93-3.74a4,4,0,0,0-3-1Z"/>
    <path class="cls-1"
          d="M379.72,410.71a8.91,8.91,0,0,0,1.06.06h1.06a5.53,5.53,0,0,0,1.37-.17,2.48,2.48,0,0,0,1.11-.61,2.88,2.88,0,0,0,.73-1.28,7.49,7.49,0,0,0,.25-2.13l-8.93-29.37h6.14l6.76,22.9,5.58-22.9H401L393,406a32.31,32.31,0,0,1-2.15,6.17,8.5,8.5,0,0,1-2.32,3.07,5,5,0,0,1-2.65,1c-.95.07-2,.11-3.15.11h-1.51a10.92,10.92,0,0,1-1.45-.11Z"/>
    <path class="cls-1"
          d="M417.28,386.82c0-1.75-.29-2.93-.87-3.55a3,3,0,0,0-2.32-.92,3.11,3.11,0,0,0-2.31.87,4.11,4.11,0,0,0-.87,3v4.19H405.1v-3.8c0-3.16.78-5.59,2.32-7.28s3.83-2.54,6.84-2.54,5.3.85,6.84,2.54,2.32,4.12,2.32,7.28v1q0,6.25-4.3,8a6.17,6.17,0,0,1,3.32,3.1,12,12,0,0,1,1,5.11v3.07c0,3.16-.78,5.59-2.32,7.28s-3.82,2.54-6.84,2.54-5.29-.84-6.84-2.54-2.32-4.12-2.32-7.28V402h5.81v5.31a4.16,4.16,0,0,0,.87,3,3.14,3.14,0,0,0,2.31.86,3.1,3.1,0,0,0,2.32-.89c.58-.6.87-1.77.87-3.52v-3.07a6,6,0,0,0-.95-3.85,3.82,3.82,0,0,0-3.07-1.12h-.95v-5.58h1.28a3.86,3.86,0,0,0,2.71-.9,4.27,4.27,0,0,0,1-3.23Z"/>
    <path class="cls-1"
          d="M428.94,386.59q0-4.74,2.41-7.28c1.6-1.69,3.9-2.54,6.92-2.54s5.32.85,6.92,2.54,2.4,4.12,2.4,7.28v20.33q0,4.74-2.4,7.28c-1.6,1.7-3.91,2.54-6.92,2.54s-5.32-.84-6.92-2.54-2.41-4.12-2.41-7.28Zm6.15,20.72a4.16,4.16,0,0,0,.86,3,3.56,3.56,0,0,0,4.64,0,4.21,4.21,0,0,0,.86-3V386.2a4.16,4.16,0,0,0-.86-3,3.53,3.53,0,0,0-4.64,0,4.11,4.11,0,0,0-.86,3Z"/>
    <path class="cls-1"
          d="M462.76,377.21q4.8,0,6.95,2.24c1.44,1.49,2.15,3.74,2.15,6.75v1.4a11.26,11.26,0,0,1-.95,5,6,6,0,0,1-3,2.9,6.18,6.18,0,0,1,3.54,3.1,12.09,12.09,0,0,1,1,5.28V407q0,4.52-2.35,6.89t-7,2.38h-9.66V377.21Zm-3.12,5.59v10.33H462a3.83,3.83,0,0,0,2.7-.9,4.23,4.23,0,0,0,1-3.23v-2.18a5,5,0,0,0-.75-3.07,2.88,2.88,0,0,0-2.38-.95Zm0,15.91v12h3.51a3.16,3.16,0,0,0,2.38-.83,4.35,4.35,0,0,0,.81-3v-3.4c0-1.83-.31-3.07-.93-3.74a4,4,0,0,0-3-1Z"/>
    <path class="cls-2"
          d="M132.6,462.55v4.31a8.66,8.66,0,0,1-1.92,6,8.67,8.67,0,0,1-11.34,0,8.66,8.66,0,0,1-1.92-6V450a8.66,8.66,0,0,1,1.92-6,8.67,8.67,0,0,1,11.34,0,8.66,8.66,0,0,1,1.92,6v3.15h-4.81v-3.47a3.43,3.43,0,0,0-.72-2.48,2.92,2.92,0,0,0-3.84,0,3.43,3.43,0,0,0-.72,2.48v17.5a3.36,3.36,0,0,0,.72,2.46,3,3,0,0,0,3.84,0,3.36,3.36,0,0,0,.72-2.46v-4.63Z"/>
    <path class="cls-2" d="M142.62,455.88h7v4.63h-7V470h8.79v4.63H137.52V442.22h13.89v4.63h-8.79Z"/>
    <path class="cls-2"
          d="M163.91,442.22q4,0,5.76,1.85t1.79,5.61v1.16a9.51,9.51,0,0,1-.79,4.12,5.06,5.06,0,0,1-2.5,2.41,5.08,5.08,0,0,1,2.94,2.56,10.09,10.09,0,0,1,.85,4.38V467a6.87,6.87,0,0,1-7.73,7.69h-8V442.22Zm-2.6,4.63v8.57h2a3.22,3.22,0,0,0,2.24-.74,3.56,3.56,0,0,0,.81-2.69v-1.8a4.17,4.17,0,0,0-.62-2.55,2.39,2.39,0,0,0-2-.79Zm0,13.2v10h2.92a2.59,2.59,0,0,0,2-.7,3.57,3.57,0,0,0,.67-2.5V464a4.7,4.7,0,0,0-.76-3.11,3.32,3.32,0,0,0-2.53-.83Z"/>
    <path class="cls-2" d="M181.89,455.88h7v4.63h-7V470h8.8v4.63H176.8V442.22h13.89v4.63h-8.8Z"/>
    <path class="cls-2"
          d="M203,442.22q3.84,0,5.72,2t1.87,6v4.22q0,3.93-1.87,6t-5.72,2h-2.41v12.18H195.5V442.22Zm-2.41,4.63v11H203a2.51,2.51,0,0,0,1.85-.65,3.41,3.41,0,0,0,.65-2.41v-4.86a3.43,3.43,0,0,0-.65-2.41,2.51,2.51,0,0,0-1.85-.65Z"/>
    <path class="cls-2" d="M220.19,474.64H215.1V442.22h5.09v13.89H226V442.22h5.19v32.42H226V460.75h-5.79Z"/>
    <path class="cls-2"
          d="M236.21,450a8.45,8.45,0,0,1,2-6,8.86,8.86,0,0,1,11.48,0,8.45,8.45,0,0,1,2,6v16.86a8.45,8.45,0,0,1-2,6,8.86,8.86,0,0,1-11.48,0,8.45,8.45,0,0,1-2-6Zm5.09,17.18a3.43,3.43,0,0,0,.72,2.48,2.92,2.92,0,0,0,3.84,0,3.43,3.43,0,0,0,.72-2.48v-17.5a3.43,3.43,0,0,0-.72-2.48,2.92,2.92,0,0,0-3.84,0,3.43,3.43,0,0,0-.72,2.48Z"/>
    <path class="cls-2" d="M261.78,474.64h-5.1V442.22h13.48v4.63h-8.38Z"/>
    <path class="cls-2"
          d="M274.37,450a8.49,8.49,0,0,1,2-6,8.88,8.88,0,0,1,11.49,0,8.49,8.49,0,0,1,2,6v16.86a8.49,8.49,0,0,1-2,6,8.88,8.88,0,0,1-11.49,0,8.49,8.49,0,0,1-2-6Zm5.1,17.18a3.44,3.44,0,0,0,.71,2.48,2.93,2.93,0,0,0,3.85,0,3.48,3.48,0,0,0,.71-2.48v-17.5a3.48,3.48,0,0,0-.71-2.48,2.93,2.93,0,0,0-3.85,0,3.44,3.44,0,0,0-.71,2.48Z"/>
    <path class="cls-2" d="M311.56,461.72l-1.58,3v10h-5.09V442.22H310v14.13l6.76-14.13h5l-7.08,14.45,7.08,18h-5.23Z"/>
    <path class="cls-2"
          d="M343.42,474.64h-5.14l-.88-5.88h-6.25l-.88,5.88h-4.68l5.19-32.42h7.45ZM331.8,464.36h4.91L334.25,448Z"/>
    <path class="cls-2"
          d="M355.59,442.22q4,0,5.77,1.85c1.18,1.24,1.78,3.11,1.78,5.61v1.16a9.37,9.37,0,0,1-.79,4.12,5,5,0,0,1-2.5,2.41,5.08,5.08,0,0,1,2.94,2.56,10.09,10.09,0,0,1,.86,4.38V467a7.79,7.79,0,0,1-1.95,5.72q-1.93,2-5.79,2h-8V442.22ZM353,446.85v8.57h2a3.22,3.22,0,0,0,2.24-.74A3.56,3.56,0,0,0,358,452v-1.8a4.1,4.1,0,0,0-.62-2.55,2.38,2.38,0,0,0-2-.79Zm0,13.2v10h2.91a2.59,2.59,0,0,0,2-.7,3.57,3.57,0,0,0,.67-2.5V464a4.7,4.7,0,0,0-.76-3.11,3.31,3.31,0,0,0-2.52-.83Z"/>
    <path class="cls-2" d="M375.15,461.72l-1.57,3v10h-5.1V442.22h5.1v14.13l6.76-14.13h5l-7.09,14.45,7.09,18h-5.23Z"/>
    <path class="cls-2"
          d="M407,474.64h-5.14l-.88-5.88h-6.25l-.88,5.88h-4.67l5.18-32.42h7.46Zm-11.62-10.28h4.91L397.85,448Z"/>
    <path class="cls-2"
          d="M420.91,450.19a4.39,4.39,0,0,0-.72-2.94,2.52,2.52,0,0,0-1.92-.77,2.6,2.6,0,0,0-1.93.72,3.48,3.48,0,0,0-.71,2.48v3.47h-4.82V450a8.66,8.66,0,0,1,1.92-6,8.69,8.69,0,0,1,11.35,0,8.66,8.66,0,0,1,1.92,6v.84c0,3.45-1.19,5.68-3.57,6.66a5.17,5.17,0,0,1,2.76,2.57,10,10,0,0,1,.81,4.24v2.55a8.66,8.66,0,0,1-1.92,6,8.69,8.69,0,0,1-11.35,0,8.66,8.66,0,0,1-1.92-6v-4.08h4.82v4.4a3.48,3.48,0,0,0,.71,2.48,2.6,2.6,0,0,0,1.93.72,2.57,2.57,0,0,0,1.92-.74,4.31,4.31,0,0,0,.72-2.92v-2.55a5,5,0,0,0-.79-3.19,3.17,3.17,0,0,0-2.55-.93h-.78v-4.63h1.06a3.23,3.23,0,0,0,2.25-.74,3.56,3.56,0,0,0,.81-2.69Z"/>
    <path class="cls-2"
          d="M447.65,474.64h-5.14l-.88-5.88h-6.25l-.88,5.88h-4.68L435,442.22h7.45ZM436,464.36h4.91L438.48,448Z"/>
  </g>
  <g id="IMG">
    <path class="cls-2" d="M248.09,123l-49,91.82L208.39,233l40.24-75.52,28.11,49L286,189Z"/>
    <polygon class="cls-3" points="251.55 253.66 234.87 284.96 218.93 253.66 251.55 253.66"/>
    <path class="cls-1"
          d="M218,314.65H79.32L156.45,157,228.2,298h13.16L355.77,83.31,488.66,314.65H218ZM274.65,298H459.81L356.31,117.78,260.28,298Zm-168.57,0H209.46L156.74,194.41Z"/>
  </g>
</svg>
