<?xml version="1.0" encoding="utf-8"?>
<!-- Generator: Adobe Illustrator 22.1.0, SVG Export Plug-In . SVG Version: 6.00 Build 0)  -->
<svg version="1.1" id="Слой_1" xmlns="http://www.w3.org/2000/svg" xmlns:xlink="http://www.w3.org/1999/xlink" x="0px" y="0px"
     viewBox="0 0 881 598.3" style="enable-background:new 0 0 881 598.3;" xml:space="preserve">
<style type="text/css">
	.st0{fill:#FFFFFF;}
	.st1{fill:#97A1C4;}
	.st2{fill:#F0F1FC;}
	.st3{fill:#E3E4FD;}
	.st4{fill:none;}
	.st5{fill:#673A56;}
	.st6{fill:#867CC3;}
	.st7{fill:#716CAD;}
	.st8{fill:#FAAE97;}
	.st9{fill:#ED8A7A;}
	.st10{fill:#3FC2D8;}
	.st11{opacity:0.5;enable-background:new    ;}
	.st12{fill:#FFCC46;}
</style>
  <title>Резюме</title>
  <g id="Слой_5">
	<g>
		<path class="st0" d="M248.7,37h383.2c0.9,0,1.5,0.7,1.5,1.5v518c0,0.9-0.7,1.5-1.5,1.5H248.7c-0.9,0-1.5-0.7-1.5-1.5v-518
			C247.1,37.7,247.8,37,248.7,37z"/>
    <path class="st1" d="M631.9,558.6H248.7c-1.1,0-2.1-0.9-2.1-2.1v-518c0-1.1,0.9-2.1,2.1-2.1h383.2c1.1,0,2.1,0.9,2.1,2.1v518
			C634,557.7,633.1,558.6,631.9,558.6z M248.7,37.6c-0.6,0-1,0.5-1,1v518c0,0.6,0.5,1,1,1h383.2c0.6,0,1-0.5,1-1v-518
			c0-0.6-0.5-1-1-1L248.7,37.6L248.7,37.6z"/>
	</g>
    <g>
		<rect x="277.2" y="209.3" class="st2" width="326.3" height="17.6"/>
	</g>
    <g>
		<rect x="277.2" y="408" class="st2" width="326.3" height="17.6"/>
	</g>
    <g>
		<rect x="286.9" y="89.7" class="st3" width="148.6" height="19.6"/>
	</g>
    <g>
		<rect x="286.9" y="121.7" class="st3" width="105.1" height="19.6"/>
	</g>
    <g>
		<rect x="286.9" y="153.6" class="st3" width="54.6" height="19.6"/>
	</g>
    <g>
		<rect x="286.9" y="253.7" class="st3" width="102.1" height="9.8"/>
	</g>
    <g>
		<rect x="286.9" y="272.1" class="st3" width="102.1" height="9.8"/>
	</g>
    <g>
		<rect x="286.9" y="290.4" class="st3" width="102.1" height="9.8"/>
	</g>
    <g>
		<rect x="286.9" y="308.7" class="st3" width="102.1" height="9.8"/>
	</g>
    <g>
		<rect x="428.6" y="253.7" class="st3" width="102.1" height="9.8"/>
	</g>
    <g>
		<rect x="428.6" y="272.1" class="st3" width="102.1" height="9.8"/>
	</g>
    <g>
		<rect x="428.6" y="290.4" class="st3" width="102.1" height="9.8"/>
	</g>
    <g>
		<rect x="428.6" y="308.7" class="st3" width="102.1" height="9.8"/>
	</g>
    <g>
		<rect x="446.9" y="446.9" class="st3" width="83.9" height="9.8"/>
	</g>
    <g>
		<rect x="446.9" y="465.2" class="st3" width="83.9" height="9.8"/>
	</g>
    <g>
		<rect x="446.9" y="483.5" class="st3" width="83.9" height="9.8"/>
	</g>
    <g>
		<rect x="446.9" y="501.9" class="st3" width="83.9" height="9.8"/>
	</g>
    <g>
		<circle class="st3" cx="303.5" cy="367.7" r="16.6"/>
	</g>
    <g>
		<circle class="st3" cx="354.5" cy="367.7" r="16.6"/>
	</g>
    <g>
		<circle class="st3" cx="405.6" cy="367.7" r="16.6"/>
	</g>
    <g>
		<circle class="st3" cx="456.6" cy="367.7" r="16.6"/>
	</g>
    <g>
		<path class="st4" d="M298.5,466c-5.3,7.6-3.5,18.1,4.1,23.4c7.6,5.3,18.1,3.5,23.4-4.1c3.4-4.9,4-11.2,1.6-16.6l-21.9,4.8
			L298.5,466z"/>
	</g>
    <g>
		<path class="st3" d="M327.6,472.8c3.8,8.5,0.1,18.4-8.4,22.3c-8.5,3.8-18.4,0.1-22.3-8.4c-2.4-5.4-1.9-11.7,1.6-16.6l-8.5-8.8
			c-10.2,12.3-8.5,30.5,3.7,40.7s30.5,8.5,40.7-3.7c6.5-7.8,8.4-18.4,5.1-28L327.6,472.8z"/>
	</g>
    <g>
		<path class="st2" d="M312.3,462.8c6.6,0,12.6,3.9,15.3,9.9l12-2.6c-5.2-15.1-21.7-23.1-36.8-17.8c-5,1.7-9.4,4.8-12.8,8.8l8.5,8.8
			C301.6,465.5,306.9,462.8,312.3,462.8z"/>
	</g>
    <g>
		<path class="st3" d="M384.6,472.6c3.9-8.4,13.9-12.1,22.3-8.2s12.1,13.9,8.2,22.3c-2.5,5.4-7.6,9.1-13.5,9.7l-1.1,12.2
			c16-0.3,28.6-13.5,28.3-29.5c-0.3-16-13.5-28.6-29.5-28.3c-10.2,0.2-19.5,5.7-24.5,14.6L384.6,472.6z"/>
	</g>
    <g>
		<path class="st2" d="M387.1,490.7c-4.3-5-5.3-12.1-2.5-18.1l-9.8-7.3c-8,13.8-3.2,31.5,10.7,39.5c4.6,2.6,9.8,3.9,15,3.8l1.1-12.2
			C396.1,497,390.6,494.8,387.1,490.7z"/>
	</g>
    <g>
		<path class="st5" d="M493.6,561c0,0,6.8,13,3.2,21.4c-0.3,0.6-0.9,0.8-1.5,0.6c-0.3-0.1-0.5-0.4-0.6-0.6l-7.7-20.8
			C486.6,559.4,490.6,556.6,493.6,561z"/>
	</g>
    <g>
		<path class="st6" d="M536.8,560.8l5.9,1.3c0,0,4.4-168.4,10.5-247.9c-30.4,3.2-60.5-3.6-60.5-3.6
			C483.4,449.9,536.8,560.8,536.8,560.8z"/>
	</g>
    <g>
		<path class="st7" d="M531.5,548.6l11.8-9.6c0.6-19,1.5-48,2.6-80l-30.2,44.3C521.7,523.4,527.5,538.8,531.5,548.6z"/>
	</g>
    <g>
		<path class="st6" d="M601.2,326c-0.8-0.1-30.8,5-53.6,7.6c0,0,6,89.6,3.2,103.6c-12.8,64.3-64,121.3-64,121.3l6.6,1.4
			c58-22.3,102-89.4,110.2-110.1C614.4,422.7,601.2,326,601.2,326z"/>
	</g>
    <g>
		<path class="st7" d="M602.1,333.1c-0.5-4.5-0.9-7.1-0.9-7.1c-0.7-0.1-27.2,4.4-49.3,7.1c0.4-6.7,0.9-13.1,1.3-18.9
			c-30.4,3.2-60.5-3.6-60.5-3.6c-0.6,8.7-0.9,17.3-1,25.8C518.7,341.5,564.7,346.8,602.1,333.1z"/>
	</g>
    <g>
		<path class="st8" d="M550.8,146.6h-11.3c-2.4,18-9.1,27.2-15.4,34.1c7.9,0.7,14.6,0.7,21,0.7c6.4,0,13.1,0,21-0.7
			C559.9,173.8,553.2,164.6,550.8,146.6z"/>
	</g>
    <g>
		<path class="st9" d="M545.3,146.6l-5.3,0.6l-1.2,3.3c-0.4,2.2-0.9,4.3-1.4,6.2c4.9,2,10.4,1.8,15-0.8c-0.2-0.9-0.5-1.9-0.7-2.8
			c-0.4-1.1-0.8-2.3-1.1-3.5l-0.8-3H545.3z"/>
	</g>
    <g>
		<path class="st5" d="M542.4,561.4c-0.6-3-5.2-3-5.8,0c0,0-1.6,14.4,2.3,21.4c0.2,0.3,0.6,0.5,0.9,0.3c0.1-0.1,0.2-0.2,0.3-0.3
			C544,575.8,542.4,561.4,542.4,561.4z"/>
	</g>
    <g>
		<path class="st10" d="M528.2,172.4c0,0-131.6,63.3-44.2,162.7l6.6-3.4c0,0-39-53.2,23.8-93.7L528.2,172.4z"/>
	</g>
    <g>
		<path class="st10" d="M579.9,238.5c0,0,76.3,27.3,46.8-84.8l-5,0.8c0,0,0.5,68.4-58.4,17.9L579.9,238.5z"/>
	</g>
    <g>

			<ellipse transform="matrix(0.9951 -9.845546e-02 9.845546e-02 0.9951 -10.2931 54.2007)" class="st8" cx="544" cy="131.4" rx="16" ry="22.5"/>
	</g>
    <g>
		<path class="st5" d="M557.8,105.5c-10.8-16.9-38.7,7.3-38.7,7.3c1,2.1,2.5,3.9,4.4,5.2c-2.2,9.9,5.4,19.6,5.4,19.6l2.5-1.5
			c0,0-0.6-4.2,1.4-7.4c1.8-2.9,2-6.9,2.3-8.7c0.1-0.4,0.2-0.7,0.3-1.1c9.1,0.1,14.2-1.3,17-2.7c1.4,0.9,2.3,2.2,2.7,3.8
			c0.3,1.8,0.5,5.8,2.3,8.7c1.9,3.2,1.4,7.4,1.4,7.4l1.8,0.1c0,0,1.1-1.4,1.2-5.9C571.6,113.7,563,107.5,557.8,105.5z"/>
	</g>
    <g>

			<ellipse transform="matrix(0.9362 -0.3514 0.3514 0.9362 -13.6691 194.0059)" class="st8" cx="527.6" cy="134.7" rx="3.3" ry="6.6"/>
	</g>
    <g>

			<ellipse transform="matrix(0.3514 -0.9362 0.9362 0.3514 238.5877 613.8331)" class="st8" cx="562.3" cy="134.7" rx="6.6" ry="3.3"/>
	</g>
    <g>
		<path class="st10" d="M563.3,172.4c-5.9,3.5-12.6,5.3-19.4,5.1c-14.4,0.1-15.7-5.1-15.7-5.1c-40.4,82.7-40.4,154.7-40.4,154.7
			c28.4,10.7,80.4,10.7,115.6,0C603.5,327.1,596.1,255.1,563.3,172.4z"/>
	</g>
    <g>
		<path class="st0" d="M545.1,202.7l18.4-29.9l-0.2-0.4c-5.9,3.5-12.6,5.3-19.4,5.1c-14.4,0.1-15.7-5.1-15.7-5.1l-0.1,0.2
			L545.1,202.7z"/>
	</g>
    <g class="st11">
		<path class="st12" d="M479.1,48.1l-23.5,155.4L611,226.9l23.4-155.4L479.1,48.1z M537.1,191.3c-29.7-4.5-50.2-32.2-45.7-61.9
			s32.2-50.2,61.9-45.7c29.7,4.5,50.2,32.2,45.7,61.9C594.5,175.3,566.8,195.8,537.1,191.3L537.1,191.3z"/>
	</g>
    <g>
		<path class="st8" d="M624.3,140.3l-0.2,1.9c0,0-6.2-5.2-7-4.6c-0.5,0.4,0.7,2.1,2.3,4h-0.1c-2.6-2.1-5.6-4.2-6.3-3.7
			c-0.5,0.4,0.6,2,2.1,3.9c-1.4-0.9-2.5-1.5-3-1.2c-0.6,0.5,1.2,2.9,3.3,5.2c0,0.2-0.1,0.3-0.1,0.5c-1.8-1.3-3.4-2.2-3.8-1.8
			c-0.9,0.7,3.2,4.6,5.9,7.1l0,0l0,0l0.3,0.3c0.9,1,2,1.8,3.2,2.5c2.2,1.3,4.7-8.7,4.7-8.7C626.4,142,624.7,140.6,624.3,140.3z"/>
	</g>
    <g>
		<path class="st8" d="M496.9,332.3l-1.9,0.4c0,0,5.8,5.7,5.3,6.5c-0.4,0.6-2.2-0.4-4.2-1.8v0.1c2.4,2.4,4.8,5.1,4.3,5.8
			c-0.4,0.5-2.1-0.4-4-1.7c1.1,1.3,1.8,2.4,1.5,2.8c-0.4,0.7-3-0.9-5.5-2.7l-0.5,0.1c1.5,1.6,2.5,3.1,2.2,3.6
			c-0.6,1-4.9-2.7-7.7-5.2l0,0l0,0l-0.4-0.3c-1.1-0.8-2-1.8-2.8-2.9c-1.5-2.1,8.2-5.6,8.2-5.6C494.9,330.3,496.5,332,496.9,332.3z"
    />
	</g>
</g>
</svg>
