<?xml version="1.0" encoding="utf-8"?>
<!-- Generator: Adobe Illustrator 22.1.0, SVG Export Plug-In . SVG Version: 6.00 Build 0)  -->
<svg version="1.1" id="Слой_1" xmlns="http://www.w3.org/2000/svg" xmlns:xlink="http://www.w3.org/1999/xlink" x="0px" y="0px"
	 viewBox="0 0 881 500" style="enable-background:new 0 0 881 500;" xml:space="preserve">
<style type="text/css">
	.st0{fill:#F0F1FC;}
	.st1{fill:#FAAE97;}
	.st2{fill:#ED8A7A;}
	.st3{fill:#673A56;}
	.st4{fill:#FFCC46;}
	.st5{fill:#0CAABA;}
	.st6{fill:#3FC2D8;}
	.st7{fill:#6560AD;}
	.st8{fill:#FFFFFF;}
	.st9{fill:#CCCCCC;}
	.st10{fill:#E7E7E7;}
	.st11{fill:#512B44;}
	.st12{fill:#B3B3B3;}
</style>
<title>Сезонный банер. Осень</title>
<g id="Слой_3">
	<g>
		<path class="st0" d="M239.9,166.3c-29.5,0.4-45.1,34.8-30.3,66.3c11.2,24,6.1,55,10,98.9c10.2,114.6,105.2,113.1,158.8,110
			c70.6-4.1,177,34.3,241.5-14.3c85.7-64.6-19.5-136.9,22.2-218.5c13-25.4,10-58.6-3.2-90.8c-0.4-1.1-0.9-2.2-1.4-3.3
			c-41.1-95.1-151.1-121.3-205-49.9L410,94.5c-34,44.9-83.9,70.5-139.4,71.4L239.9,166.3z"/>
	</g>
</g>
<g>
	<path class="st1" d="M448.5,174.3c0.1-0.2,0.1-0.3,0.2-0.5C448.6,174,448.6,174.3,448.5,174.3z"/>
	<path class="st1" d="M433.2,197.9L433.2,197.9L433.2,197.9c3.5,16.8,52.4,5,54.7,4.5c-7.6-9.9-14.5-22.8-16.2-40.1
		c-3.8,10.5-13.7,17.5-24.9,17.5c-0.3,0-0.6,0-0.9,0C442.6,186.3,438.2,191.9,433.2,197.9L433.2,197.9
		C433.1,197.9,433.2,197.9,433.2,197.9z"/>
	<path class="st2" d="M471.7,162.3L471.7,162.3c-0.1-1.2-0.2-2.4-0.3-3.6c-4.2,6.8-10.3,11.4-17.4,12c-1.4,0.1-2.8,0.1-4.1-0.1
		c-0.2,0.6-0.5,1.3-0.7,1.9c-0.2,0.5-0.4,0.9-0.6,1.4c-0.1,0.2-0.1,0.3-0.2,0.5c-0.8,1.8-1.6,3.6-2.5,5.3l0,0c0.3,0,0.6,0,0.9,0
		C458,179.8,467.9,172.8,471.7,162.3z"/>
	<path class="st1" d="M454.1,170.6c7.1-0.6,13.2-5.2,17.4-12c2.5-4.2,4.4-9.1,5.3-14.7c1.9-0.4,3.6-1.7,5-3.8
		c1.1-1.6,1.9-3.6,2.2-5.8c1-6-1.4-11.3-5.4-12s-8.1,3.6-9.1,9.6c-0.2,0.9-0.2,1.8-0.2,2.6c-1.2-2.6-3.3-6.8-5.9-9.7
		c-3.8-4.2-5.9-7.3-6.9-10.2c-2.7-7.3-10.2-11.8-17.6-9.5c-14.6,4.4-14.7,23.7-14.7,23.7l-0.1-0.1c-0.1,2.3-0.1,4.6,0.2,7
		c1.7,18.6,12.8,33.2,25.8,34.8c-0.2,0.6-0.5,1.3-0.7,1.9c0.2-0.6,0.5-1.3,0.7-1.9C451.3,170.8,452.7,170.8,454.1,170.6z"/>
	<path class="st3" d="M438.8,105.3c7.4-2.2,14.9,2.3,17.6,9.5c1,2.9,3.1,5.9,6.9,10.2c2.6,2.9,4.7,7.1,5.9,9.7
		c0-0.9,0.1-1.7,0.2-2.6c1-6,5.1-10.2,9.1-9.6s6.4,6.1,5.4,12c-0.4,2.2-1.2,4.2-2.2,5.8l0,0c0,0,21.6-22.6,2.9-40.8
		c0,0,3.5-2.7,8.8-9.9c0,0-15.3,3-26.5-6c-13.7-11.1-45.3-15.8-41.7,9c0,0-24.1,7.3-1.3,36.2l0.1,0.1
		C424.1,128.9,424.2,109.6,438.8,105.3z"/>
	<path class="st4" d="M267.2,97.9l17.6,5.2c1.2,0.3,1.8,1.6,1.5,2.7c-0.1,0.4-0.4,0.8-0.7,1.1c-1,0.8-1.1,2.1-0.4,3.1
		c0.5,0.6,1.2,0.9,1.9,0.8c12.4-1.2,24.3-5.5,34.6-12.7c1-0.7,2-1.5,2.9-2.4l8.1,8.2l1-1l-8.1-8.2c0.9-0.9,1.7-1.9,2.4-2.9
		c7.2-10.2,11.6-22.1,12.9-34.5c0.1-1.2-0.8-2.3-2-2.4c-0.7-0.1-1.4,0.2-1.9,0.8c-0.8,0.9-2.2,1.1-3.1,0.3c-0.3-0.3-0.6-0.7-0.7-1.1
		L328,37.4c-0.3-1.2-1.6-1.8-2.7-1.5c-0.8,0.2-1.4,0.9-1.5,1.7l-2.1,9.6c-0.3,1.2-1.4,1.9-2.6,1.7c-0.2,0-0.3-0.1-0.5-0.2l-1.8-0.9
		c-1.1-0.5-2.4-0.1-2.9,1c-0.2,0.4-0.2,0.8-0.2,1.2l2.9,24.3l-14.5-22.2c-0.7-1-2-1.3-3-0.6c-0.4,0.3-0.7,0.6-0.9,1.1l-1.1,3
		c-0.4,1.1-1.7,1.7-2.8,1.3c-0.4-0.1-0.7-0.4-1-0.7c-4.2-5-9.6-9-15.6-11.6c-1.1-0.5-2.4,0-2.9,1.1c-0.3,0.6-0.3,1.2,0,1.8
		c2.6,6,6.6,11.3,11.5,15.6c0.9,0.8,1.1,2.1,0.4,3.1c-0.3,0.3-0.6,0.6-1,0.7l-3,1.1c-1.1,0.4-1.7,1.7-1.3,2.8
		c0.2,0.4,0.5,0.8,0.9,1.1l22.1,14.6l-24.2-3c-1.2-0.2-2.3,0.7-2.5,1.9c-0.1,0.4,0,0.8,0.2,1.2l0.9,1.8c0.5,1.1,0,2.4-1.1,2.9
		c-0.1,0.1-0.3,0.1-0.5,0.2l-9.6,2.1c-1.2,0.3-1.9,1.4-1.7,2.6C265.8,97,266.4,97.6,267.2,97.9z"/>
	<path class="st4" d="M203.8,310.1c1.5,0.8,3.1,1.6,4.7,2.2l-5.3,14.9l1.8,0.6l5.3-14.9c1.6,0.5,3.3,0.9,5,1.2
		c11.7,2,23.5,1.8,35.1-0.4l-4.7-20.1l24.7-0.8l12.4-11.2c1.3-1.1,1.4-3,0.3-4.2c-0.8-0.9-1.9-1.3-3.1-1l-13.1,3.1
		c-1.6,0.4-3.2-0.6-3.6-2.2c-0.1-0.2-0.1-0.5-0.1-0.8v-2.8c0-1.7-1.3-3-3-3c-0.6,0-1.2,0.2-1.7,0.5l-28.3,18.1l18.8-31.2
		c0.9-1.4,0.5-3.3-0.9-4.1c-0.6-0.4-1.3-0.5-1.9-0.4l-4.3,0.4c-1.6,0.2-3.1-1-3.3-2.7c-0.1-0.6,0-1.2,0.3-1.7
		c4.3-9.2,5.3-18.8,5.1-26.2c0-1.7-1.4-3-3-3c-0.9,0-1.7,0.4-2.3,1.1c-4.7,5.6-10.1,13.8-12.5,23.6c-0.4,1.6-2,2.6-3.6,2.2
		c-0.5-0.1-1-0.4-1.4-0.8l-3.1-3.1c-1.2-1.2-3.1-1.2-4.2,0c-0.5,0.5-0.8,1.1-0.9,1.8l-5,36.1l-10.7-31.9c-0.5-1.6-2.2-2.5-3.7-2
		c-0.6,0.2-1.1,0.5-1.5,1l-1.8,2.2c-1,1.3-2.9,1.5-4.2,0.5c-0.2-0.2-0.4-0.3-0.5-0.5l-8.3-10.6c-1-1.4-2.8-1.7-4.2-0.7
		c-1,0.7-1.4,1.9-1.2,3l4,25c0.3,1.6-0.8,3.2-2.4,3.5c-0.6,0.1-1.3,0-1.9-0.3c-1.5-0.8-3.3-0.2-4.1,1.3c-0.5,0.9-0.5,2.1,0.1,3
		C176.4,289.5,188.9,301.8,203.8,310.1z"/>
	<path class="st5" d="M631.1,264.9c-0.2,0-0.3,0-0.5-0.1l0.8,0.5L631.1,264.9z"/>
	<path class="st5" d="M582.4,264.4h-9.2c3.7,0,7.2,0.4,10.6,1.3L582.4,264.4z"/>
	<path class="st5" d="M615,292.6c2.1,5.2,3.3,11,3.3,17v61.8h-74.1h-51.5c24.9,0,45.1,20.2,45.1,45.1v35.4c30.3-1,58.9-7.3,82-24.7
		c54.9-41.4,31.4-86,18.4-134.2C630.5,293.9,622.7,293.6,615,292.6z"/>
	<path class="st6" d="M362.6,264.4H359c-18.4,0-34.2,11-41.2,26.7l31.8-1.1C352.9,281.1,357.4,272.5,362.6,264.4z"/>
	<path class="st6" d="M576.9,340.1c-2.9,5.2-10.1,11.1-14.3,15.6c-5.9,6.2-12.1,11.4-18.3,15.7h74.1v-61.8c0-6-1.2-11.7-3.3-17
		c-7.4-1-14.7-2.7-21.9-5.2c-1-0.4-1.8-1.2-2.1-2.3c-0.4-1.8,0.7-3.5,2.4-3.9c0.6-0.2,1.2-0.5,1.6-1c1.2-1.4,1.1-3.4-0.3-4.6
		l-11.1-9.8c-3.4-0.8-7-1.3-10.6-1.3h-24.7C564.8,287,577.8,313.6,576.9,340.1z"/>
	<path class="st5" d="M271.1,402.5l-7.3-31.1h-36c0.8,2.3,1.7,4.6,2.6,6.7c11,6.8,18.9,18.2,20.9,31.6c4.7,4.7,9.8,8.8,15.1,12.3
		l1.2-10.7C268.1,408,269.3,405,271.1,402.5z"/>
	<path class="st6" d="M230.5,378.1c5.5,12.9,12.6,23.3,20.9,31.6C249.3,396.4,241.5,385,230.5,378.1z"/>
	<path class="st7" d="M402.7,288.4c10.9-42.5,22.2-75.4,30.5-90.4l0,0c0,0,0,0-0.1,0.1V198l0,0c0,0-44.5,26.6-70.5,66.6
		c-5.2,8-9.7,16.6-13,25.6L402.7,288.4z"/>
	<path class="st8" d="M433.2,197.9L433.2,197.9c-8.3,15-19.6,47.9-30.5,90.4l16.2-0.5v0.1l3.1-0.1l14.9,61.3
		c11.1-4.3,25.1-9.7,38.1-14.8c3.7-58.3,9.1-113.6,13.1-131.7v-0.1c0,0,0,0-0.1,0C485.6,202.9,436.7,214.8,433.2,197.9z"/>
	<path class="st8" d="M488,202.4L488,202.4L488,202.4z"/>
	<path class="st8" d="M442.1,403.3h-19l18.3,2.6C441.6,405,441.9,404.1,442.1,403.3z"/>
	<path class="st8" d="M447.3,392.3c1.4-2.2,3-4.3,4.8-6.2c-2.3-0.5-4.6-1.1-6.7-1.7L447.3,392.3z"/>
	<path class="st7" d="M488,202.5c-4,18.1-9.4,73.4-13.1,131.7c17.6-7,33.6-13.6,38.4-16.3c1.3-0.8,2.3-2,3-3.3l60.6,25.6
		c0.9-26.5-12.1-53.1-28.4-75.7C522.8,229,488.9,203.2,488,202.5L488,202.5L488,202.5L488,202.5L488,202.5L488,202.5L488,202.5z"/>
	<path class="st1" d="M445.4,384.4c2.2,0.6,4.4,1.2,6.7,1.7c8.2-8.9,20-14.5,33.2-14.5h0.9h6.6h51.5c6.3-4.3,12.4-9.5,18.3-15.7
		c4.2-4.5,11.4-10.4,14.3-15.6l-60.6-25.6c-0.7,1.3-1.7,2.5-3,3.3c-4.8,2.7-20.7,9.3-38.4,16.3c-13,5.2-27,10.6-38.1,14.8
		L445.4,384.4z"/>
	<path class="st9" d="M445.4,384.4l-8.6-35.3L422,287.8l-3.1,0.1L445.1,396c0.7-1.3,1.4-2.6,2.2-3.8L445.4,384.4z"/>
	<path class="st10" d="M250.4,313.8l13.5,57.7l7.3,31.1c3.9-5.4,10.4-8.6,17.5-8l46.1,4.1c4.7-4.3,11.2-6.6,18-5.6l70.4,10.2h19
		c0.8-2.5,1.8-5,3-7.3L419,287.9v-0.1l-16.2,0.5l-53,1.8l-31.8,1.1l-47.4,1.6l-24.7,0.8L250.4,313.8z M337.5,334.8
		c6.3-0.6,11.9,4.7,12.6,11.8c0.7,7.1-3.9,13.4-10.1,14s-11.9-4.7-12.6-11.8S331.2,335.4,337.5,334.8z"/>
	<path class="st11" d="M327.9,412.9c0-0.5,0.1-1,0.2-1.5c0.7-5.1,3.2-9.5,6.7-12.8l-46.1-4.1c-7.1-0.6-13.6,2.6-17.5,8
		c-1.8,2.5-3.1,5.5-3.5,8.8l-1.2,10.7c17.9,11.7,38.8,17,59.2,19.2L327.9,412.9z"/>
	<path class="st3" d="M440.1,416.5c0-3.7,0.5-7.2,1.3-10.7l-18.3-2.6L352.7,393c-6.8-1-13.3,1.3-18,5.6c-3.5,3.3-6,7.7-6.7,12.8
		c-0.1,0.5-0.1,1-0.2,1.5l-2.2,28.3c19,2,37.5,1.2,52.7,0.4c18.6-1.1,39.6,0.8,61.7,3.2v-28.3H440.1z"/>
	
		<ellipse transform="matrix(0.9954 -9.532872e-02 9.532872e-02 0.9954 -31.5966 33.8695)" class="st12" cx="338.7" cy="347.6" rx="11.4" ry="12.9"/>
	<path class="st6" d="M537.9,416.5c0-24.9-20.2-45.1-45.1-45.1h-6.6h-0.9c-13.1,0-24.9,5.6-33.2,14.5c-1.8,1.9-3.4,4-4.8,6.2
		c-0.8,1.2-1.5,2.5-2.2,3.8c-1.2,2.3-2.2,4.8-3,7.3c-0.3,0.9-0.5,1.8-0.7,2.6c-0.8,3.4-1.3,7-1.3,10.7v28.3
		c31.8,3.5,65.8,8.2,97.8,7.2V416.5z"/>
	<path class="st4" d="M594.9,275.5c1.4,1.2,1.5,3.3,0.3,4.6c-0.4,0.5-1,0.8-1.6,1c-1.8,0.4-2.8,2.2-2.4,3.9c0.3,1.1,1,1.9,2.1,2.3
		c7.1,2.5,14.4,4.2,21.9,5.2c7.7,1,15.5,1.2,23.3,0.5c3.1-0.3,6.3-0.7,9.4-1.2c1.8-0.3,3.7-0.8,5.4-1.4l5.8,16.1l1.9-0.7l-5.8-16.1
		c1.7-0.7,3.4-1.5,5-2.4c16.1-9.3,29.5-22.5,38.9-38.5c0.9-1.6,0.4-3.6-1.2-4.5c-1-0.6-2.1-0.6-3.1-0.1c-1.6,0.8-3.6,0.1-4.4-1.5
		c-0.3-0.6-0.4-1.3-0.3-1.9l4-27c0.2-1.8-1-3.4-2.8-3.7c-1.2-0.2-2.3,0.3-3,1.2l-8.8,11.6c-1.1,1.4-3.2,1.7-4.6,0.6
		c-0.2-0.1-0.4-0.3-0.5-0.5l-1.9-2.3c-1.2-1.4-3.2-1.6-4.6-0.4c-0.5,0.4-0.8,0.9-1,1.5l-11.2,34.5l-5.8-39c-0.3-1.8-1.9-3-3.7-2.8
		c-0.7,0.1-1.3,0.4-1.8,0.9l-3.3,3.3c-1.3,1.3-3.3,1.3-4.6,0c-0.4-0.4-0.7-1-0.9-1.5c-2.7-10.6-8.5-19.3-13.7-25.4
		c-1.2-1.4-3.2-1.5-4.6-0.3c-0.7,0.6-1.1,1.5-1.1,2.4c-0.1,8,1,18.4,5.8,28.3c0.8,1.6,0.2,3.6-1.5,4.4c-0.5,0.3-1.1,0.4-1.7,0.3
		l-4.7-0.4c-1.8-0.2-3.4,1.2-3.6,3c-0.1,0.7,0.1,1.4,0.5,2l20.4,33.1l0.2,0.4l-0.8-0.5l-30.1-18.8c-1.5-0.9-3.6-0.5-4.5,1.1
		c-0.3,0.5-0.5,1.1-0.5,1.7v3c0,1.8-1.5,3.3-3.3,3.3c-0.2,0-0.5,0-0.7-0.1l-14.2-3.2c-1.8-0.4-3.5,0.7-3.9,2.5
		c-0.3,1.2,0.1,2.4,1,3.2l7.9,7l1.4,1.3L594.9,275.5z"/>
</g>
</svg>
