<?xml version="1.0" encoding="utf-8"?>
<!-- Generator: Adobe Illustrator 22.1.0, SVG Export Plug-In . SVG Version: 6.00 Build 0)  -->
<svg version="1.1" id="Слой_1" xmlns="http://www.w3.org/2000/svg" xmlns:xlink="http://www.w3.org/1999/xlink" x="0px" y="0px"
	 viewBox="0 0 881 500" style="enable-background:new 0 0 881 500;" xml:space="preserve">
<style type="text/css">
	.st0{fill:#5E77FF;}
	.st1{fill:#FFCC46;}
	.st2{fill:#F0F1FC;}
	.st3{fill:#E2E4F9;}
	.st4{fill:#FFFFFF;stroke:#97A1C4;stroke-width:0.414;stroke-miterlimit:10;}
	.st5{fill:#FFFFFF;stroke:#97A1C4;stroke-width:0.5245;stroke-miterlimit:10;}
	.st6{fill:#E3E4FD;}
	.st7{fill:#C887EB;}
	.st8{fill:#FFFFFF;}
	.st9{fill:#97A1C4;}
	.st10{fill:#8E98C2;}
	.st11{fill:#B3B3B3;}
	.st12{fill:#98E2E2;}
	.st13{fill:#E1E1E1;}
	.st14{fill:none;stroke:#FFCC46;stroke-width:4.4561;stroke-linecap:round;stroke-linejoin:round;}
</style>
<title>Статистика</title>
<rect x="155.9" y="330.1" class="st0" width="11.8" height="41.7"/>
<rect x="171.4" y="312.4" class="st0" width="11.8" height="59.4"/>
<circle class="st1" cx="172.8" cy="177.4" r="9.8"/>
<circle class="st1" cx="172.8" cy="217.4" r="9.8"/>
<g>
	<path class="st2" d="M530.4,88.8c0,0-59.6,44.9-95.3,35.4c-22.2-5.9-115.6-65.7-158.1-50.4c-28.8,10.4-45.8,37.6-37.3,71.5
		s-25.4,28.2-26.3,50.8s22.6,19.8,44.2,61.1c21.6,41.4-26.3,70.6-34.8,111s-0.9,106.3,79,98.8s106.2-82.1,162.8-63.2
		c42.1,14.1,117.4,67.4,154.8,24.1c30.1-34.9-7.1-73.8-30.6-136.8s21.3-87,36.5-120.4C647.8,120.4,599.2,45.6,530.4,88.8"/>
	<path class="st2" d="M213.3,195.6c-8.9,13.2-21,27.2-37.7,41.9c-24.1,21.3-28.3,60.7-23.5,99.6c0.2,1.3,0.3,2.7,0.5,4
		c12,84.2,74.6,139.5,138.6,139.5c23.8,0,47.8-7.7,69.5-24.4l33.3-25.7c16.1-12.5,34-22.5,53-29.8h-0.5
		c-45.1,0-73.8,59.6-144.8,66.2c-4.3,0.4-8.3,0.6-12.1,0.6c-68.6,0-74.9-61.1-66.9-99.4c8.5-40.5,56.5-69.6,34.8-111
		s-45.2-38.6-44.2-61.1C213.3,195.9,213.3,195.8,213.3,195.6 M626.7,119.7c5.6,16.4,5.7,35-1.6,51c-15.1,33.4-60,57.4-36.5,120.4
		c17.2,46,41.6,79.2,41.8,107.3c16.6-10.4,26.7-33.1,22.3-58.5c-5-29.4,9.7-61.6,18.5-110.5C682.5,167.6,659.8,136.6,626.7,119.7
		 M316,19.4c-17.5,0-33.8,4.8-48.5,16.9c-46.5,38.4-14.1,83.4-45.3,144.2c9.7-7.6,23.1-12.5,17.4-35.3c-8.5-33.9,8.5-61.1,37.3-71.5
		c5.2-1.8,10.7-2.6,16.2-2.5c46.6,0,122.2,47.7,141.9,52.9c3.5,0.9,7.2,1.4,10.8,1.3c26.8,0,60.9-20.6,76.2-30.9
		c-2.7-0.5-5.3-1-7.8-1.5C453.5,80.2,377.9,19.4,316,19.4"/>
	<path class="st3" d="M293.2,71.3c-5.5-0.1-11,0.7-16.2,2.5c-28.8,10.4-45.8,37.6-37.3,71.5c5.7,22.7-7.7,27.7-17.4,35.3
		c-2.7,5.2-5.7,10.3-8.9,15.1c0,0.1,0,0.3,0,0.4c-0.9,22.6,22.6,19.8,44.2,61.1c21.6,41.4-26.3,70.6-34.8,111
		c-8,38.3-1.7,99.4,66.9,99.4c3.9,0,7.9-0.2,12.1-0.6c71-6.7,99.7-66.2,144.8-66.2h0.5c22.2-8.4,45.7-12.8,69.5-12.8
		c16.9,0,33.8,2.2,50.2,6.4l33.5,8.6c3.3,0.8,6.6,1.3,10,1.3c7.2,0,14.2-2.1,20.3-5.9c-0.2-28.1-24.7-61.3-41.8-107.3
		c-23.5-63,21.3-87,36.5-120.4c7.3-16,7.2-34.6,1.6-51c-32.2-16.5-74.3-19.7-104.6-25.1c-15.4,10.3-49.5,30.9-76.2,30.9
		c-3.6,0-7.3-0.4-10.8-1.3C415.4,118.9,339.7,71.3,293.2,71.3"/>
	<rect x="133.6" y="94.4" class="st4" width="154.5" height="256.2"/>
	<rect x="181.7" y="284.3" class="st0" width="11.8" height="41.7"/>
	<rect x="197.2" y="266.6" class="st0" width="11.8" height="59.4"/>
	<rect x="212.7" y="237.8" class="st0" width="11.8" height="88.3"/>
	<rect x="228.2" y="225.7" class="st0" width="11.8" height="100.3"/>
	<rect x="243.7" y="248.1" class="st0" width="11.8" height="77.9"/>
	<rect x="259.2" y="210.3" class="st0" width="11.8" height="115.8"/>
	<rect x="190.8" y="123.5" class="st1" width="73.1" height="5.7"/>
	<rect x="190.8" y="134.1" class="st1" width="50.4" height="5.7"/>
	<rect x="190.8" y="163.5" class="st1" width="73.1" height="5.7"/>
	<rect x="190.8" y="174.1" class="st1" width="50.4" height="5.7"/>
	<rect x="300.3" y="192.1" class="st5" width="302.5" height="189.9"/>
	<rect x="333.1" y="224" class="st6" width="44.1" height="4.6"/>
	<rect x="333.1" y="231.7" class="st6" width="30.2" height="4.6"/>
	<path class="st1" d="M430.2,300.5c-0.6-26.8-22.8-48.1-49.6-47.5s-48.1,22.8-47.5,49.6c0.6,26.4,22.2,47.5,48.6,47.5v-49.6H430.2z"
		/>
	<path class="st0" d="M430.2,301.6c0-0.4,0-0.7,0-1.1h-48.6v49.6C408.5,350.1,430.2,328.4,430.2,301.6z"/>
	<rect x="472.9" y="224" class="st6" width="44.1" height="4.6"/>
	<rect x="472.9" y="231.7" class="st6" width="30.2" height="4.6"/>
	<path class="st7" d="M568.9,312.1l-47.4-10.5L532,349C550.4,345,564.9,330.5,568.9,312.1z"/>
	<path class="st0" d="M570.1,301.6c0-26.8-21.8-48.6-48.6-48.6v48.6l47.4,10.5C569.7,308.6,570.1,305.1,570.1,301.6z"/>
	<path class="st6" d="M472.9,301.6c0,26.8,21.7,48.6,48.6,48.6c3.5,0,7.1-0.4,10.5-1.1l-10.5-47.4V253
		C494.7,253,472.9,274.8,472.9,301.6C472.9,301.6,472.9,301.6,472.9,301.6z"/>
	<polyline class="st8" points="689.3,257.7 567.2,257.7 567.2,94.4 689.3,94.4 689.3,257.7 	"/>
	<polyline class="st9" points="689.3,257.7 689.3,257.5 567.5,257.5 567.5,94.7 689.1,94.7 689.1,257.7 689.3,257.7 689.3,257.5 
		689.3,257.7 689.5,257.7 689.5,94.2 567,94.2 567,258 689.5,258 689.5,257.7 689.3,257.7 	"/>
	<path class="st2" d="M747.5,94.4h-29.1c0,16-12.9,28.9-28.9,29.1v29.1C721.5,152.4,747.5,126.4,747.5,94.4 M688,36.3
		c-31.5,0.7-56.8,26.4-56.9,57.9h29.1c0.1-15.5,12.3-28.1,27.8-28.8L688,36.3L688,36.3"/>
	<path class="st2" d="M660.2,94.7h-29.1c0.1,31.9,26,57.8,57.9,57.9v-29.1C673.2,123.4,660.3,110.5,660.2,94.7"/>
	<path class="st10" d="M689.1,123.5v29.1h0.5v-29.1H689.1 M660.2,94.2h-29.1c0,0.1,0,0.1,0,0.2s0,0.1,0,0.2h29.1c0-0.1,0-0.1,0-0.2
		S660.2,94.3,660.2,94.2"/>
	<path class="st3" d="M689.2,36.3c-0.4,0-0.8,0-1.2,0v29.1c0.4,0,0.8-0.1,1.3-0.1c16.1,0,29.1,13,29.1,29.1h29
		C747.4,62.3,721.3,36.3,689.2,36.3"/>
	<polygon class="st11" points="688,65.4 688,65.4 688,36.3 688,36.3 	"/>
	<polygon class="st11" points="718.4,94.4 718.4,94.4 747.4,94.4 747.4,94.4 718.4,94.4 	"/>
	<polygon class="st8" points="688,94.4 718.4,94.4 718.4,94.4 718.4,94.4 688,94.4 688,65.4 688,65.4 	"/>
	<path class="st7" d="M581.8,212.7c5.1-6.2,12.9-9.6,21-9.2c13.5,0.8,20.5,3.1,24.9-6.4s11.6-14.2,22.1-14.5s9.4-22.2,25.1-23.6
		v85.3h-93L581.8,212.7z"/>
	<rect x="334.1" y="103.8" class="st5" width="175.4" height="71.8"/>
	<path class="st7" d="M378.3,128.6c6.1,0,11.1,5,11.1,11.1c0,6.1-5,11.1-11.1,11.1c-5.9,0-10.8-4.7-11.1-10.6h-11.1l0,0l0,0
		c0.3,12.3,10.4,22,22.7,21.7c12.3-0.3,22-10.4,21.7-22.7c-0.3-12.1-10.1-21.7-22.2-21.7l0,0l0,0L378.3,128.6z"/>
	<path class="st0" d="M356.1,139.7c0,0.2,0,0.3,0,0.5h11.1c0-0.2,0-0.3,0-0.5c0-6.1,5-11.1,11.1-11.1v-11.1
		C366.1,117.5,356.1,127.4,356.1,139.7C356.1,139.7,356.1,139.7,356.1,139.7z"/>
	<path class="st12" d="M367.3,140.2L367.3,140.2L367.3,140.2z"/>
	<polygon class="st12" points="378.3,128.6 378.3,128.6 378.3,117.5 378.3,117.5 378.3,128.6 	"/>
	<path class="st12" d="M378.3,140.2v-11.6l0,0V140.2L378.3,140.2L378.3,140.2z"/>
	<rect x="414.9" y="122.9" class="st13" width="72.6" height="7.5"/>
	<rect x="414.9" y="135.9" class="st13" width="49.9" height="7.5"/>
	<rect x="414.9" y="149" class="st13" width="64.7" height="7.5"/>
	<circle class="st8" cx="233.8" cy="415.3" r="20.5"/>
	<polyline class="st14" points="224.8,415.1 231.9,422 245.7,408.5 	"/>
	<rect x="267.5" y="403" class="st8" width="80.3" height="9.5"/>
	<rect x="267.5" y="418" class="st8" width="55.3" height="9.5"/>
</g>
</svg>
